<?xml version="1.0" standalone="no"?>
<!DOCTYPE svg PUBLIC "-//W3C//DTD SVG 20010904//EN"
 "http://www.w3.org/TR/2001/REC-SVG-20010904/DTD/svg10.dtd">
<svg version="1.0" xmlns="http://www.w3.org/2000/svg"
 width="250.000000pt" height="250.000000pt" viewBox="0 0 250.000000 250.000000"
 preserveAspectRatio="xMidYMid meet">
<metadata>
Created by potrace 1.11, written by Peter Selinger 2001-2013
</metadata>
<g transform="translate(0.000000,250.000000) scale(0.100000,-0.100000)"
fill="#000000" stroke="none">
<path d="M1332 1967 l-42 -43 0 -355 c0 -397 3 -423 66 -516 67 -99 204 -163
319 -148 152 19 280 140 303 289 24 153 -53 298 -196 368 -39 19 -66 24 -165
26 l-118 4 3 -89 3 -88 97 -5 c107 -6 133 -18 176 -80 40 -60 23 -164 -36
-210 -90 -71 -230 -25 -261 85 -7 26 -11 164 -11 380 l0 339 -42 43 c-23 24
-45 43 -48 43 -3 0 -25 -19 -48 -43z"/>
<path d="M2085 1985 l-25 -24 0 -390 c0 -370 1 -393 21 -446 41 -111 158 -203
279 -220 43 -6 46 -5 90 39 l44 46 -43 44 c-29 29 -58 48 -86 55 -52 13 -88
41 -109 85 -14 29 -16 83 -16 404 l0 370 -26 31 c-34 41 -92 44 -129 6z"/>
<path d="M270 1581 c-96 -31 -177 -102 -219 -190 -22 -48 -26 -69 -26 -146 0
-79 4 -97 29 -148 59 -116 168 -185 307 -194 l80 -6 45 44 44 43 0 -92 c0
-108 -12 -144 -63 -189 -27 -24 -51 -34 -88 -39 -69 -9 -103 -39 -103 -89 0
-30 7 -44 34 -67 31 -28 37 -30 89 -24 120 14 220 85 273 194 l33 67 0 295 0
295 -28 57 c-34 69 -94 131 -162 166 -40 20 -67 26 -135 28 -47 2 -96 0 -110
-5z m188 -197 c15 -11 37 -40 50 -64 20 -39 22 -59 22 -179 l0 -135 -37 36
c-35 32 -45 36 -111 41 -89 7 -133 31 -161 91 -43 88 -12 183 74 222 41 19
129 13 163 -12z"/>
<path d="M1004 1569 c-60 -23 -135 -85 -170 -141 -41 -64 -54 -138 -54 -301 0
-164 8 -196 58 -216 35 -15 74 -6 99 21 15 17 19 44 23 192 6 189 13 216 72
258 28 19 48 24 131 26 l97 4 0 89 0 89 -102 -1 c-78 0 -116 -5 -154 -20z"/>
</g>
</svg>
