<?xml version="1.0" encoding="UTF-8" standalone="no"?>
<!-- Created with Inkscape (http://www.inkscape.org/) -->

<svg
   xmlns:dc="http://purl.org/dc/elements/1.1/"
   xmlns:cc="http://creativecommons.org/ns#"
   xmlns:rdf="http://www.w3.org/1999/02/22-rdf-syntax-ns#"
   xmlns:svg="http://www.w3.org/2000/svg"
   xmlns="http://www.w3.org/2000/svg"
   xmlns:sodipodi="http://sodipodi.sourceforge.net/DTD/sodipodi-0.dtd"
   xmlns:inkscape="http://www.inkscape.org/namespaces/inkscape"
   width="27.200001mm"
   height="19.5mm"
   id="svg3511"
   version="1.1"
   inkscape:version="0.92.4 (5da689c313, 2019-01-14)"
   sodipodi:docname="logo.svg">
  <defs
     id="defs3" />
  <sodipodi:namedview
     inkscape:document-units="mm"
     id="base"
     pagecolor="#ffffff"
     bordercolor="#666666"
     borderopacity="1.0"
     inkscape:pageopacity="0.0"
     inkscape:pageshadow="2"
     inkscape:zoom="6.1458112"
     inkscape:cx="84.679511"
     inkscape:cy="56.746898"
     inkscape:current-layer="layer1"
     showgrid="false"
     inkscape:window-width="1920"
     inkscape:window-height="1017"
     inkscape:window-x="-8"
     inkscape:window-y="-8"
     inkscape:window-maximized="1"
     units="mm"
     fit-margin-top="1"
     fit-margin-left="1"
     fit-margin-right="1"
     fit-margin-bottom="1"
     width="30mm" />
  <metadata
     id="metadata4">
    <rdf:RDF>
      <cc:Work
         rdf:about="">
        <dc:format>image/svg+xml</dc:format>
        <dc:type
           rdf:resource="http://purl.org/dc/dcmitype/StillImage" />
        <dc:title></dc:title>
      </cc:Work>
    </rdf:RDF>
  </metadata>
  <g
     inkscape:label="Layer 1"
     inkscape:groupmode="layer"
     id="layer1"
     transform="translate(-210.37389,-495.33103)">
    <g
       id="g1059"
       inkscape:export-xdpi="150"
       inkscape:export-ydpi="150"
       transform="translate(-6.9966354,0.6508498)">
      <ellipse
         id="path4400"
         style="fill:#333333;fill-opacity:1;stroke:none;stroke-width:0.32455873"
         cx="271.48526"
         cy="563.43036"
         rx="46.513584"
         ry="4.5673223" />
      <ellipse
         transform="rotate(17.967057)"
         id="path4375"
         style="fill:#c8b7b7;fill-opacity:1;stroke:#000000;stroke-width:0.86960864;stroke-linecap:round;stroke-linejoin:round;stroke-miterlimit:4;stroke-dasharray:none;stroke-dashoffset:0;stroke-opacity:1"
         cx="405.5304"
         cy="442.2724"
         rx="2.1400762"
         ry="18.904003" />
      <ellipse
         style="fill:#c8b7b7;fill-opacity:1;stroke:#000000;stroke-width:0.86960864;stroke-linecap:round;stroke-linejoin:round;stroke-miterlimit:4;stroke-dasharray:none;stroke-dashoffset:0;stroke-opacity:1"
         id="path4377"
         transform="rotate(17.967057)"
         cx="411.33969"
         cy="440.38852"
         rx="2.1400762"
         ry="18.904003" />
      <ellipse
         transform="rotate(-8.8327478)"
         id="path4379"
         style="fill:#c8b7b7;fill-opacity:1;stroke:#000000;stroke-width:0.86960864;stroke-linecap:round;stroke-linejoin:round;stroke-miterlimit:4;stroke-dasharray:none;stroke-dashoffset:0;stroke-opacity:1"
         cx="202.14041"
         cy="582.74561"
         rx="2.1400762"
         ry="18.904003" />
      <ellipse
         style="fill:#c8b7b7;fill-opacity:1;stroke:#000000;stroke-width:0.86960864;stroke-linecap:round;stroke-linejoin:round;stroke-miterlimit:4;stroke-dasharray:none;stroke-dashoffset:0;stroke-opacity:1"
         id="path4381"
         transform="rotate(-8.8327478)"
         cx="207.75024"
         cy="583.61731"
         rx="2.1400762"
         ry="18.904003" />
      <path
         sodipodi:nodetypes="scscscsscscscsscssccscscsscsscscscsscscs"
         inkscape:connector-curvature="0"
         id="path3563"
         d="m 279.87893,499.92866 c -2.93091,0.32828 -5.3626,1.76582 -6.55213,3.6279 -1.60753,-1.28462 -4.05931,-1.96083 -6.71445,-1.66344 -3.29606,0.36916 -5.95778,2.13684 -6.93426,4.33913 -1.5991,-1.39463 -4.16284,-2.14673 -6.93325,-1.83643 -4.22119,0.47278 -7.39681,3.23822 -7.32624,6.27441 -1.16853,-0.30992 -2.479,-0.41357 -3.83909,-0.26123 -4.39473,0.49223 -7.66119,3.47121 -7.30496,6.65183 0.05,0.44697 0.16238,0.87295 0.3423,1.27575 -4.24941,0.58676 -7.37437,3.50195 -7.02592,6.61298 0.21193,1.89217 1.65606,3.43059 3.72049,4.26235 -3.95735,0.75628 -6.79282,3.54042 -6.46004,6.51161 0.30721,2.74288 3.21512,4.7422 6.82784,4.92458 -1.11148,1.15012 -1.71809,2.5583 -1.55548,4.01014 0.35625,3.18062 4.21034,5.35447 8.60507,4.86225 1.78536,-0.19997 3.38286,-0.80588 4.63,-1.67316 -0.17742,0.57428 -0.24679,1.17007 -0.17906,1.77471 0.35623,3.18061 4.21034,5.35447 8.60507,4.86224 2.05057,-0.22967 3.8535,-1.00391 5.16144,-2.08208 0.45584,0.083 0.9155,0.16124 1.37999,0.23282 0.48535,3.07698 4.26787,5.16572 8.57454,4.68336 3.31566,-0.37137 5.98875,-2.15839 6.95078,-4.37897 1.27839,2.21876 4.47855,3.56978 8.03782,3.17114 3.88863,-0.43555 6.89604,-2.81036 7.2912,-5.55649 1.37453,2.0588 4.45823,3.29101 7.87197,2.90866 4.39477,-0.49223 7.67157,-3.47237 7.31532,-6.65298 -0.0668,-0.59638 -0.26126,-1.15483 -0.55435,-1.66978 1.40322,0.56271 3.09848,0.79234 4.87339,0.59354 4.39473,-0.49222 7.66121,-3.47121 7.30497,-6.65183 -0.16228,-1.44881 -1.04883,-2.68604 -2.38256,-3.56147 3.47754,-0.97923 5.86575,-3.57161 5.55882,-6.31193 -0.24934,-2.2262 -2.21296,-3.96197 -4.87468,-4.63441 2.62528,-1.21882 4.29695,-3.4285 4.03731,-5.74652 -0.3391,-3.02764 -3.84313,-5.13815 -7.97024,-4.91056 0.25637,-0.66654 0.36084,-1.36978 0.28102,-2.08237 -0.35623,-3.18062 -4.21034,-5.35447 -8.60507,-4.86225 -0.6176,0.0691 -1.21083,0.18238 -1.77722,0.34338 -0.49667,-3.06738 -4.27347,-5.1423 -8.57203,-4.66085 -1.28241,0.14363 -2.46767,0.50438 -3.49681,1.01452 -1.02904,-2.54924 -4.45907,-4.17204 -8.3115,-3.74055 z"
         style="fill:#f2f2f2;stroke:#000000;stroke-width:1.02219653;stroke-linecap:round;stroke-linejoin:round;stroke-miterlimit:4;stroke-dasharray:none;stroke-dashoffset:0;stroke-opacity:1" />
      <path
         sodipodi:nodetypes="csscccccsccsccccccccccccsccccccccccscccsccccccccccscscsccccccssccccccccssscccsccsscccccccccccccccccccccccscccsccccsccccsccccccscccccscsscccccccccccccccccccccccsscssscssscccscccccccccccccccscccccccccccssccscscccccccccccsccccccccccccccccccccccccscscsccccccscccccccccccsccccccccccccccsccccccssccscsccscccscsscscscccccscssccscccccccccccssscccscccccccccsccscccccccccsccccccccccccccccccccccccccccccccccscccccccccccccccccccccscccccsscccscccccccccccscccsccssccccccccsscccscccsccccsccccccccsscccccscccsccscscccscsccscscscscsccccccscccscccccccccccccccccccccccccccccsscscccccscscscccccccccccsccscssscssccsssssssccssscccsccccccscccscccccccccscscccsccccsccccsccccccccccccssccsscssssscssccscsccsccsccsccccccccccccccccccsccccccccccccccccscscsccssscssscccscccsccsscssccccccccccccccccccccccscsccsccsccccccccccccsccccscccccc"
         inkscape:connector-curvature="0"
         id="path1644"
         d="m 257.55697,547.2042 c -0.0856,-0.0377 -0.24321,-0.16275 -0.35021,-0.27789 -0.15741,-0.16937 -0.19457,-0.28919 -0.19457,-0.62738 0,-0.37803 0.0279,-0.44662 0.29184,-0.7169 0.28102,-0.28778 0.29181,-0.31901 0.29067,-0.84039 -4.8e-4,-0.29783 -0.0271,-0.58225 -0.0588,-0.63204 -0.0372,-0.0586 -0.40655,-0.0998 -1.04855,-0.11674 l -0.99096,-0.0263 -0.9932,-0.98352 c -0.9836,-0.97401 -0.9967,-0.98355 -1.3547,-0.98514 -0.43933,-10e-4 -0.70953,-0.16571 -0.88554,-0.53661 -0.3597,-0.75803 0.29691,-1.5528 1.10377,-1.33603 0.46803,0.12574 0.68566,0.40928 0.70045,0.9126 l 0.0124,0.42165 0.87946,0.88196 0.87946,0.88195 1.20947,0.0214 1.20947,0.0214 0.0219,1.00972 0.022,1.00971 0.31122,0.29905 0.31122,0.29905 1.79593,-0.008 1.79594,-0.008 0.22823,-0.22823 c 0.58197,-0.58198 1.56986,-0.27396 1.67673,0.52278 0.13516,1.00766 -1.11278,1.49551 -1.75076,0.68444 l -0.15427,-0.19612 h -1.79721 -1.79724 l -0.25665,0.28006 c -0.20612,0.22492 -0.32509,0.28606 -0.6042,0.31054 -0.19115,0.0168 -0.41759,-2.5e-4 -0.50321,-0.0381 z m 0.71819,-0.76297 c 0.10364,-0.15697 0.0964,-0.18828 -0.0841,-0.3688 -0.22607,-0.22607 -0.50053,-0.1849 -0.60235,0.0903 -0.15231,0.41176 0.43983,0.65198 0.68639,0.27846 z m 5.49494,0.0497 c 0.23466,-0.33502 -0.10397,-0.72703 -0.46239,-0.53523 -0.25001,0.1338 -0.30924,0.36123 -0.14217,0.54585 0.17762,0.19627 0.46315,0.19125 0.60456,-0.0108 z m -10.33025,-5.24899 c 0.25196,-0.38192 -0.35445,-0.79754 -0.61691,-0.42283 -0.11718,0.16731 -0.10171,0.3288 0.0504,0.52477 0.11121,0.14333 0.44424,0.0834 0.56651,-0.10192 z m 39.96817,2.74219 c -0.14331,-0.0458 -0.33375,-0.18234 -0.42323,-0.30337 l -0.16268,-0.22003 h -1.44851 c -1.02284,0 -1.47594,-0.0274 -1.54189,-0.0934 -0.0661,-0.0661 -0.0934,-0.52642 -0.0934,-1.57505 v -1.48165 l -1.1402,-1.14211 c -1.07666,-1.07846 -1.15413,-1.13982 -1.39061,-1.10145 -0.30684,0.0498 -0.7586,-0.14999 -0.92972,-0.41115 l -0.12309,-0.18785 h -1.83215 -1.83216 l -0.19522,0.232 c -0.25787,0.30646 -0.69267,0.42457 -1.0825,0.29406 -0.41174,-0.13784 -0.61898,-0.44632 -0.61898,-0.92137 v -0.38388 l -2.39296,-2.39203 -2.39298,-2.39204 -1.28521,1.28346 -1.28522,1.28348 -7.09878,0.0207 c -1.66052,0.39209 -1.85554,-1.06389 -0.17577,-0.75937 l 6.92707,-7.2e-4 1.39773,-1.40088 c 0.76874,-0.77049 1.45165,-1.40088 1.51755,-1.40088 0.0659,0 1.29289,1.17508 2.72659,2.61129 2.40905,2.41324 2.62429,2.60888 2.83782,2.57926 0.35293,-0.049 0.71096,0.0815 0.92631,0.33742 l 0.19455,0.23121 h 1.83121 c 1.74839,0 1.83497,-0.008 1.91409,-0.15486 0.22273,-0.41619 1.07021,-0.52751 1.46796,-0.19282 0.27074,0.2278 0.43715,0.65726 0.36543,0.94302 -0.0442,0.17607 0.0884,0.33598 1.19891,1.44632 l 1.2486,1.24838 v 1.3513 1.3513 h 1.13351 1.13352 l 0.19526,-0.23207 c 0.40423,-0.4804 1.1323,-0.4786 1.53822,0.004 l 0.19208,0.22829 h 1.08004 1.08003 l 0.22489,-0.23472 c 0.5109,-0.53327 1.28791,-0.43702 1.59513,0.1976 0.13842,0.28596 0.15107,0.38445 0.0822,0.64012 -0.20754,0.77074 -1.11801,0.99383 -1.67659,0.41081 l -0.22566,-0.23554 h -1.08003 -1.08004 l -0.19455,0.23119 c -0.15848,0.18835 -0.63767,0.41575 -0.80715,0.38304 -0.0214,-0.004 -0.15616,-0.045 -0.29945,-0.0908 z m 0.61077,-0.67905 c 0.18735,-0.18737 0.1904,-0.22705 0.0344,-0.44965 -0.22532,-0.32168 -0.65711,-0.17963 -0.65711,0.21616 0,0.38777 0.3406,0.51549 0.62261,0.23349 z m 4.06644,0.0472 c 0.15428,-0.11715 0.17374,-0.29871 0.0556,-0.5194 -0.15228,-0.28453 -0.6977,-0.13063 -0.6977,0.19686 0,0.36101 0.35588,0.53977 0.64207,0.32254 z m -16.23917,-6.07889 c 0.1181,-0.18025 0.1181,-0.2089 0,-0.38913 -0.27923,-0.42616 -0.81847,-0.0793 -0.60502,0.38913 0.0602,0.13196 0.15122,0.19457 0.28309,0.19457 0.12153,0 0.24225,-0.073 0.32193,-0.19457 z m 5.49295,0.0658 c 0.19147,-0.17327 0.17941,-0.3812 -0.0307,-0.52831 -0.22261,-0.15592 -0.26228,-0.15287 -0.44965,0.0345 -0.18738,0.18738 -0.19731,0.33635 -0.0334,0.50031 0.15749,0.1575 0.3349,0.15527 0.51364,-0.006 z m -13.82757,5.35404 c -0.12841,-0.0793 -0.29884,-0.21779 -0.37874,-0.3077 -0.14294,-0.16088 -0.19584,-0.16356 -3.3073,-0.16842 l -3.16204,-0.004 -0.50816,-0.50427 c -0.48328,-0.47957 -0.5264,-0.50426 -0.881,-0.50426 -0.42535,0 -0.62502,-0.0877 -0.92174,-0.40483 l -0.2089,-0.22328 -2.88578,0.0223 -2.88579,0.0223 -0.17402,0.20669 c -0.2291,0.27209 -0.45144,0.37701 -0.79898,0.37701 -0.39345,0 -0.71036,-0.20909 -0.85148,-0.56179 -0.19937,-0.49828 -0.11727,-0.83099 0.30163,-1.22233 0.15796,-0.14757 0.20196,-0.26298 0.20196,-0.52969 0,-0.32371 -0.0306,-0.37035 -0.60316,-0.91935 l 1.28138,0.22347 c 0.052,0.093 0.0958,0.37315 0.0973,0.62264 0.002,0.4197 0.0251,0.47642 0.30193,0.75881 l 0.29916,0.30518 h 2.869 2.86898 l 0.28792,-0.28113 c 0.70939,-0.6927 1.70046,-0.27349 1.70442,0.72094 10e-4,0.35266 -8e-4,0.34894 0.5208,0.82489 l 0.40526,0.36967 h 2.98502 2.98502 l 0.16748,-0.22652 c 0.32577,-0.44063 1.05694,-0.50151 1.46634,-0.12209 0.24443,0.22652 0.3341,0.76805 0.1863,1.1249 -0.2019,0.48743 -0.89397,0.69155 -1.3628,0.40197 z m 0.74247,-0.54251 c 0.36582,-0.29623 -0.0427,-0.8585 -0.43637,-0.60058 -0.27191,0.17817 -0.24634,0.5758 0.0441,0.68638 0.18384,0.07 0.2058,0.0651 0.39224,-0.0858 z m -16.54684,-1.69196 c 0.22892,-0.22892 0.0755,-0.57815 -0.254,-0.57815 -0.2567,0 -0.40197,0.12657 -0.40197,0.35023 0,0.33297 0.40885,0.47503 0.65597,0.22792 z m 7.73375,0.029 c 0.0513,-0.0513 0.0934,-0.16694 0.0934,-0.25682 0,-0.0899 -0.0421,-0.20548 -0.0934,-0.25684 -0.1353,-0.13529 -0.504,-0.11573 -0.55981,0.0297 -0.12328,0.32128 0.0111,0.57734 0.30298,0.57734 0.0899,0 0.20546,-0.0421 0.25683,-0.0934 z m 40.75784,1.27249 c -0.77994,-0.25361 -0.9826,-1.26866 -0.34711,-1.7385 0.19716,-0.14577 0.23019,-0.2215 0.22918,-0.52536 -0.001,-0.42542 0.0234,-0.3874 -0.67672,-1.03902 -0.5072,-0.47211 -0.5925,-0.52234 -0.88714,-0.52234 -0.26763,0 -0.37139,0.0467 -0.57971,0.26126 -0.42877,0.4415 -0.96111,0.4412 -1.40312,-7.2e-4 l -0.26311,-0.26314 -1.96639,0.0209 -1.96637,0.0208 -0.0227,0.31131 c -0.0196,0.26914 0.0141,0.34588 0.24849,0.56637 0.62031,0.58356 0.35837,1.54234 -0.46352,1.69654 -0.54278,0.10181 -1.12337,-0.39633 -1.124,-0.96442 -2.5e-4,-0.31297 0.10666,-0.53401 0.38494,-0.79521 0.16406,-0.15398 0.20825,-0.26476 0.20179,-0.50587 l -0.009,-0.30872 -0.45642,-0.0237 c -0.41681,-0.0216 -0.47739,-0.003 -0.69797,0.20926 -0.34019,0.32806 -0.61727,0.41821 -0.98279,0.31979 -0.43926,-0.11828 -0.69854,-0.46475 -0.69854,-0.93341 0,-0.91175 1.04922,-1.29716 1.68822,-0.62013 l 0.21803,0.231 h 2.84574 2.84575 l 0.16454,-0.22256 c 0.33721,-0.4561 1.17933,-0.46006 1.51421,-0.008 0.15146,0.20489 0.21656,0.23029 0.60268,0.23517 0.23807,0.003 0.48997,0.0293 0.55977,0.0583 0.17213,0.0718 1.48387,1.31943 1.60199,1.52374 0.052,0.09 0.0958,0.37377 0.0973,0.63073 0.002,0.41652 0.0281,0.49113 0.23624,0.68758 0.12841,0.1212 0.23348,0.25242 0.23348,0.29161 0,0.0414 0.94049,0.0712 2.24918,0.0712 l -1.42248,-0.0282 0.27238,-0.27239 c 0.23154,-0.23154 0.32555,-0.27239 0.62674,-0.27239 0.4899,0 0.71101,0.12141 0.91237,0.501 0.21725,0.40951 0.16178,0.79804 -0.15986,1.11967 -0.40463,0.40464 -1.06072,0.3742 -1.43148,-0.0664 l -0.19455,-0.23121 1.44359,0.0282 h -2.22774 l -0.19454,0.2312 c -0.10699,0.12717 -0.32363,0.26707 -0.48139,0.31088 -0.31394,0.0872 -0.29787,0.0868 -0.52034,0.0144 z m 0.51921,-0.6853 c 0.17659,-0.15982 0.18093,-0.32216 0.0136,-0.50713 -0.14714,-0.16259 -0.41853,-0.18646 -0.55607,-0.049 -0.21208,0.21207 -0.0217,0.68488 0.27572,0.68488 0.0684,0 0.18855,-0.0579 0.26683,-0.12881 z m 2.69285,-0.0114 c 0.29426,-0.35455 -0.19853,-0.85932 -0.53852,-0.55162 -0.19166,0.17343 -0.20054,0.33201 -0.0292,0.52134 0.1542,0.17038 0.43885,0.18557 0.56774,0.0302 z m -11.14664,-1.29429 c 0.15442,-0.23568 0.0466,-0.48573 -0.24048,-0.55779 -0.35754,-0.0898 -0.62413,0.32822 -0.38083,0.59706 0.1882,0.20796 0.47102,0.19008 0.62131,-0.0393 z m -2.28547,-2.02872 c 0.19566,-0.42943 -0.22816,-0.76631 -0.57228,-0.4549 -0.1766,0.15983 -0.18093,0.32216 -0.0136,0.50714 0.18843,0.20822 0.47892,0.18231 0.5858,-0.0522 z m 7.51947,0.10117 c 0.0513,-0.0513 0.0934,-0.18445 0.0934,-0.29574 0,-0.37375 -0.35159,-0.51768 -0.63594,-0.26034 -0.17393,0.15739 -0.17815,0.25238 -0.0211,0.4765 0.1318,0.18817 0.41513,0.22817 0.56372,0.0795 z m -33.50451,1.18611 c -0.35203,-0.21464 -0.5167,-0.5669 -0.45556,-0.97457 0.12664,-0.8445 1.24373,-1.11167 1.74033,-0.41623 0.0941,0.13174 0.2532,0.14242 2.12078,0.14242 h 2.01908 v -0.61172 c 0,-0.59222 -0.009,-0.62094 -0.2724,-0.90055 -0.22389,-0.23741 -0.27238,-0.34812 -0.27238,-0.62199 0,-0.91623 1.05577,-1.35028 1.67087,-0.68695 0.37917,0.40892 0.34788,0.92724 -0.0836,1.38474 -0.26327,0.27914 -0.27006,0.30222 -0.248,0.84228 l 0.0227,0.55528 0.37475,0.0239 c 0.33617,0.0214 0.40631,-0.004 0.68121,-0.25294 0.246,-0.22226 0.36928,-0.27686 0.62499,-0.27686 0.8083,0 1.26935,0.82855 0.82662,1.48552 -0.40164,0.59599 -1.07139,0.61246 -1.60667,0.0395 l -0.18868,-0.20196 h -2.73572 -2.7357 l -0.18868,0.2046 c -0.21281,0.23076 -0.60182,0.41815 -0.86716,0.41771 -0.0977,-1.5e-4 -0.28973,-0.0687 -0.42676,-0.15219 z m 0.79103,-0.59505 c 0.19966,-0.19966 -0.021,-0.65333 -0.31771,-0.65333 -0.27266,0 -0.44779,0.4846 -0.24751,0.68488 0.13186,0.13186 0.41777,0.1159 0.56522,-0.0315 z m 7.47579,-0.008 c 0.12484,-0.17072 0.003,-0.54406 -0.19771,-0.60789 -0.17523,-0.0556 -0.44232,0.0987 -0.49065,0.28348 -0.0926,0.35395 0.47216,0.6201 0.68836,0.32441 z m -2.18886,-2.53742 c 0.21488,-0.15711 0.13889,-0.53906 -0.12564,-0.63154 -0.16741,-0.0584 -0.24471,-0.0441 -0.36968,0.069 -0.19165,0.17344 -0.20054,0.33201 -0.0293,0.52133 0.15156,0.16748 0.33242,0.18169 0.52454,0.0412 z m -14.94866,-5.08477 0.13445,0.20518 h 1.7908 1.79082 l 0.2652,-0.2652 c 0.461,-0.461 1.02415,-0.46144 1.45831,-7.9e-4 l 0.25122,0.26634 h 1.75833 1.75832 l 0.22198,-0.23169 c 0.46354,-0.48381 1.10655,-0.49894 1.51339,-0.0356 0.18231,0.20763 0.23943,0.34723 0.23943,0.58515 0,0.62396 -0.38215,1.00518 -1.00766,1.00518 -0.25063,0 -0.37653,-0.0557 -0.61645,-0.2724 l -0.30151,-0.27238 h -1.80081 c -1.72822,0 -1.80625,0.006 -1.93623,0.16176 -0.20436,0.24414 -0.52008,0.38302 -0.8707,0.38302 -0.25062,0 -0.37652,-0.0557 -0.61645,-0.2724 l -0.3015,-0.27238 h -1.83062 c -1.55233,0 -1.83742,0.0177 -1.87526,0.11628 z m 4.9997,0.7925 c 0.16125,-0.2461 0.0824,-0.49462 -0.17755,-0.55988 -0.39468,-0.099 -0.6381,0.30083 -0.36609,0.60141 0.18407,0.20339 0.39365,0.18739 0.54364,-0.0415 z m 5.48212,0.0351 c 0.17656,-0.17655 0.18954,-0.25822 0.0751,-0.47208 -0.0913,-0.17061 -0.45633,-0.20512 -0.6043,-0.0571 -0.13742,0.13742 -0.11365,0.45779 0.0428,0.57654 0.19003,0.14426 0.30613,0.13297 0.48641,-0.0472 z m -11.01803,-0.0446 c 0.0673,-0.0673 0.12229,-0.16982 0.12229,-0.22792 -0.79158,-1.17175 -0.87658,0.92234 -0.12229,0.22792 z m 49.95866,2.92872 c -0.12511,-0.0824 -0.25818,-0.20482 -0.2957,-0.27187 -0.0612,-0.10946 4.4149,-0.12192 -2.84345,-0.12192 -4.90479,0 -8.16136,-0.029 -8.27906,-0.0737 -0.10666,-0.0406 -0.50122,-0.35576 -0.8767,-0.70044 -0.63513,-0.58302 -0.70628,-0.62667 -1.02123,-0.62667 -0.42623,0 -0.76111,-0.17031 -0.9132,-0.46442 -0.39869,-0.77101 0.29189,-1.62835 1.12988,-1.4027 0.44982,0.12113 0.69774,0.46307 0.69774,0.96237 v 0.40635 l 0.64206,0.56043 0.64208,0.56041 8.00192,10e-5 2.69208,6e-5 0.25065,-0.26576 c 0.45636,-0.48388 1.19248,-0.42366 1.52692,0.12489 0.18517,0.30371 0.19931,0.59095 0.047,0.95539 -0.20071,0.48034 -0.93175,0.66691 -1.40103,0.35755 z m 0.81119,-0.54945 c 0.0856,-0.0856 0.15565,-0.18288 0.15565,-0.21617 0,-0.15828 -0.26134,-0.40644 -0.42803,-0.40644 -0.16672,0 -0.42805,0.24816 -0.42805,0.40644 0,0.10548 0.30656,0.37183 0.42805,0.37183 0.0643,0 0.18678,-0.0701 0.27238,-0.15566 z m -13.86728,-1.98458 c 0.11809,-0.18024 0.11809,-0.20889 0,-0.38913 -0.22944,-0.35017 -0.66869,-0.21468 -0.66869,0.20626 0,0.38273 0.45602,0.50744 0.66869,0.18287 z m -9.04911,0.96731 c -0.18751,-0.12012 -0.26567,-0.24356 -0.32229,-0.50909 -0.0411,-0.19279 -0.0564,-0.42076 -0.0339,-0.50662 0.0311,-0.11874 -0.10973,-0.30384 -0.58856,-0.77374 l -0.62936,-0.61766 h -3.08163 -3.08163 l -0.28048,0.2724 c -0.23422,0.22747 -0.33689,0.27239 -0.62261,0.27239 -0.45584,0 -0.75132,-0.16535 -0.91614,-0.51269 -0.25514,-0.53767 -0.006,-1.15372 0.53917,-1.33641 0.39865,-0.13346 0.84232,-0.0108 1.06879,0.29554 l 0.17043,0.23052 h 3.25507 3.25508 l 0.7476,0.73555 c 0.66258,0.65191 0.77233,0.73062 0.96488,0.69211 0.31722,-0.0634 0.74951,0.10655 0.93563,0.36795 l 0.16226,0.22788 h 1.58757 1.58755 l 0.26374,-0.26374 c 0.7861,-0.78611 2.00956,-0.1016 1.6684,0.93348 -0.24284,0.73675 -1.29694,0.8789 -1.72077,0.23208 l -0.12823,-0.19571 -1.64268,0.0256 -1.64268,0.0257 -0.16685,0.19761 c -0.0918,0.1087 -0.24336,0.23594 -0.33686,0.28277 -0.26641,0.13347 -0.73999,0.0978 -1.01146,-0.0761 z m 5.95048,-0.50476 c 0.23412,-0.16399 0.22373,-0.46461 -0.0216,-0.62535 -0.18023,-0.1181 -0.20889,-0.1181 -0.38912,0 -0.22438,0.14701 -0.25177,0.39865 -0.0658,0.60418 0.1574,0.17391 0.25238,0.17813 0.4765,0.0211 z m -5.04225,-0.0724 c 0.14946,-0.18009 0.0319,-0.49614 -0.20697,-0.55608 -0.11298,-0.0284 -0.26129,-0.0166 -0.32958,0.0263 -0.15846,0.0992 -0.20261,0.38742 -0.0817,0.53313 0.12159,0.14651 0.49556,0.14452 0.61823,-0.003 z m -9.2923,-2.02451 c 0.11809,-0.18023 0.11809,-0.20888 0,-0.38913 -0.13743,-0.20972 -0.44197,-0.26177 -0.56924,-0.0973 -0.1653,0.21362 -0.17139,0.37557 -0.0199,0.5271 0.20907,0.20906 0.4357,0.1934 0.58909,-0.0407 z m 20.04437,-0.62515 c -0.27319,-0.22989 -0.43697,-0.65789 -0.36361,-0.95022 0.20108,-0.80112 1.12387,-1.0444 1.68899,-0.44527 l 0.25425,0.26955 5.7978,0.0427 5.41837,0.0453 0.13444,-0.20519 c 0.14203,-0.21675 0.53058,-0.41743 0.80827,-0.41743 0.28511,0 0.6969,0.24443 0.82319,0.48864 0.15594,0.30156 0.15402,0.67053 -0.004,0.97816 -0.19606,0.37913 -0.44703,0.50492 -0.91727,0.45974 -0.32657,-0.0314 -0.44383,-0.0847 -0.62026,-0.28217 l -0.21753,-0.24348 -5.43915,-0.0453 -5.81858,-0.0427 -0.13544,0.16177 c -0.3558,0.42504 -1.02003,0.5127 -1.40841,0.1859 z m 0.88102,-0.50019 c 0.19208,-0.21227 0.10397,-0.52936 -0.16605,-0.59711 -0.2679,-0.0673 -0.44753,0.0515 -0.479,0.3166 -0.0449,0.37835 0.38666,0.56603 0.64505,0.28051 z m 13.04706,0.14848 c 0.27161,-0.12376 0.24864,-0.51969 -0.0384,-0.66201 -0.38289,-0.18985 -0.71385,0.28343 -0.42297,0.60485 0.15827,0.1749 0.19341,0.17924 0.46136,0.0571 z m -37.46375,-2.79756 h 5.11194 l 0.29887,-0.29184 c 0.27073,-0.26438 0.33849,-0.29185 0.71943,-0.29185 0.38095,0 0.44869,0.0276 0.71943,0.29185 l 0.29888,0.29184 h 1.74454 1.74454 l 0.29888,-0.29184 c 0.27074,-0.26438 0.33848,-0.29185 0.71943,-0.29185 0.38095,0 0.44869,0.0276 0.71942,0.29185 l 0.29889,0.29184 h 3.02201 3.02201 l 0.64295,-0.62756 c 0.63182,-0.61671 0.64285,-0.634 0.63735,-0.9986 -0.0141,-0.93373 1.04112,-1.36054 1.64977,-0.66731 l 0.23705,0.26998 h 3.29807 3.29807 l 0.27505,-0.26712 c 0.35072,-0.34061 0.72161,-0.41822 1.11242,-0.23277 0.65696,0.31175 0.76986,1.08237 0.23094,1.57626 -0.27115,0.24848 -0.31501,0.26234 -0.72302,0.22852 -0.36997,-0.0307 -0.46472,-0.0724 -0.63915,-0.28132 l -0.20478,-0.2453 h -3.352 c -2.90207,0 -3.35801,0.0156 -3.39664,0.1163 -0.0804,0.2096 -0.53979,0.42789 -0.90111,0.42819 -0.33001,2.4e-4 -0.37719,0.0314 -1.05964,0.70073 -0.39284,0.38525 -0.75677,0.70045 -0.80876,0.70045 -0.052,0 -1.51322,0.009 -3.2472,0.0195 -3.06214,0.0189 -3.15641,0.024 -3.28198,0.1775 -0.44668,0.54605 -1.12969,0.56503 -1.60078,0.0446 -0.14258,-0.15755 -0.21683,-0.16362 -2.00111,-0.16362 -1.77019,0 -1.85675,0.008 -1.93591,0.15485 -0.13614,0.25437 -0.52812,0.41211 -0.91556,0.36844 -0.26035,-0.0293 -0.41461,-0.10719 -0.63126,-0.31881 l -0.28672,-0.27996 -5.1165,-6e-5 c -2.43191,0.1433 -1.73679,-2.10193 0.002,-0.70273 z m 11.9867,0.56082 c 0.1298,-0.16511 0.12261,-0.29105 -0.0251,-0.43867 -0.14516,-0.14515 -0.43162,-0.15987 -0.56258,-0.029 -0.13185,0.13186 -0.1159,0.41776 0.0315,0.56522 0.14205,0.14206 0.40373,0.0961 0.55603,-0.0976 z m -5.50466,-0.0192 c 0.0466,-0.0872 0.0631,-0.22723 0.0365,-0.31112 -0.0576,-0.18113 -0.39993,-0.28579 -0.57541,-0.17586 -0.15846,0.0992 -0.20261,0.38742 -0.0817,0.53313 0.14101,0.1699 0.52008,0.14172 0.62063,-0.0462 z m 14.71693,-1.93458 c 0.15679,-0.12695 0.17128,-0.17846 0.10408,-0.36967 -0.065,-0.18489 -0.12211,-0.22217 -0.34017,-0.22217 -0.30786,0 -0.4404,0.16169 -0.36823,0.44922 0.0433,0.17272 0.12822,0.23678 0.37246,0.2811 0.0273,0.004 0.13172,-0.0574 0.23191,-0.13848 z m 8.48701,0.0503 c 0.18635,-0.15014 0.21986,-0.33569 0.0933,-0.51639 -0.13815,-0.19724 -0.39128,-0.21268 -0.58675,-0.0357 -0.18354,0.1661 -0.17991,0.30057 0.0134,0.49381 0.17968,0.17967 0.30992,0.19551 0.48012,0.0584 z m -31.42494,-0.0568 c -0.30388,-0.12279 -0.49716,-0.45924 -0.49716,-0.86543 0,-0.30881 0.0427,-0.42464 0.23942,-0.64862 0.40752,-0.46414 1.13243,-0.44417 1.47768,0.0407 l 0.1632,0.22917 1.99781,-0.0208 1.9978,-0.0208 0.0227,-0.60526 c 0.0226,-0.60118 0.021,-0.60696 -0.24631,-0.85904 -0.69052,-0.65124 -0.24522,-1.68658 0.72574,-1.6874 0.33912,-2.3e-4 0.36756,-0.0211 1.32974,-0.97311 l 0.9832,-0.97284 h 0.79606 c 0.7879,0 0.79806,-0.002 0.99134,-0.23208 0.40415,-0.4803 1.08712,-0.48012 1.5475,4.9e-4 0.12207,0.12743 0.26084,0.23168 0.30834,0.23168 0.0476,0 0.21608,-0.13281 0.37458,-0.29513 0.25674,-0.26293 0.28818,-0.33879 0.28818,-0.69537 0,-0.4731 0.0988,-0.76641 0.33417,-0.99236 0.0944,-0.0906 0.4413,-0.41706 0.7708,-0.72535 l 0.5991,-0.56051 h 0.50428 c 0.43749,0 0.52346,-0.0244 0.64902,-0.18399 0.15821,-0.20114 0.56762,-0.43863 0.75614,-0.43863 0.29173,0 0.73135,0.25404 0.86314,0.49877 0.19504,0.36217 0.12421,0.92842 -0.15051,1.20313 -0.17513,0.17514 -0.27173,0.20486 -0.66573,0.20486 -0.41454,0 -0.4871,-0.0254 -0.72184,-0.25294 -0.21253,-0.206 -0.32329,-0.25293 -0.59694,-0.25293 -0.31361,0 -0.3769,0.0398 -0.94968,0.59719 -0.57034,0.55503 -0.61368,0.61984 -0.61368,0.91772 0,0.27473 0.0477,0.36732 0.33371,0.64803 0.29941,0.29385 0.37248,0.32752 0.71092,0.32752 0.37022,0 0.39047,0.013 1.09147,0.70044 0.67333,0.66031 0.73321,0.70044 1.04529,0.70044 0.39454,0 0.60001,0.0935 0.87821,0.39988 l 0.20717,0.22813 0.84349,-0.0222 0.84348,-0.0222 0.0231,-0.62262 c 0.0212,-0.57015 0.009,-0.63482 -0.15565,-0.76742 -0.47121,-0.38161 -0.57174,-0.85964 -0.27377,-1.3018 0.22183,-0.32918 0.47011,-0.45753 0.88782,-0.459 0.30394,-7.9e-4 0.37075,-0.0455 0.99197,-0.65977 0.36634,-0.36224 0.73397,-0.69495 0.81693,-0.73936 0.0972,-0.052 1.28578,-0.0807 3.33853,-0.0807 2.75627,0 3.19372,-0.0157 3.23231,-0.11629 0.078,-0.20331 0.53983,-0.42789 0.88051,-0.4282 1.02854,-7.2e-4 1.26979,1.54678 0.29145,1.86966 -0.39509,0.13039 -0.7504,0.0376 -1.05457,-0.27548 l -0.2621,-0.26976 -3.06383,-7.2e-4 -3.06384,-7.2e-4 -0.61925,0.62342 c -0.49659,0.49994 -0.61648,0.66568 -0.60524,0.83664 0.0294,0.44711 -0.0108,0.57198 -0.27824,0.86824 -0.27226,0.30135 -0.2755,0.31302 -0.25295,0.91468 l 0.0229,0.60943 0.3652,0.0236 c 0.3206,0.0207 0.38142,-10e-4 0.49797,-0.1791 0.38391,-0.58592 1.3199,-0.55555 1.63462,0.0531 0.1825,0.35292 0.11275,0.95175 -0.14037,1.20485 -0.2323,0.2323 -0.73863,0.32045 -1.06477,0.18535 -0.12534,-0.0519 -0.31672,-0.19409 -0.4253,-0.31595 l -0.19742,-0.22155 -1.63172,-0.008 -1.63172,-0.008 -0.16048,0.22538 c -0.0883,0.12395 -0.26712,0.26954 -0.39745,0.32352 -0.29891,0.12381 -0.81806,0.0585 -1.02908,-0.12936 -0.23762,-0.2116 -0.38961,-0.62644 -0.32959,-0.89964 0.0473,-0.21512 4.8e-4,-0.28638 -0.55801,-0.84803 -0.7361,-0.74045 -0.93332,-0.78565 -1.45696,-0.334 -0.29477,0.25424 -0.35709,0.27607 -0.69777,0.24448 -0.28625,-0.0266 -0.43328,-0.0921 -0.6263,-0.27918 -0.29996,-0.29074 -0.54708,-0.31225 -0.71109,-0.0619 -0.15551,0.23733 -0.43867,0.3622 -0.82133,0.3622 -0.24202,0 -0.37156,-0.0579 -0.60892,-0.27238 -0.29414,-0.26575 -0.31748,-0.2724 -0.95488,-0.2724 h -0.65336 l -0.86639,0.87555 -0.8664,0.87554 -0.035,0.46243 c -0.0305,0.40262 -0.0667,0.48887 -0.28027,0.66718 -0.23849,0.1991 -0.2453,0.22247 -0.2453,0.8412 v 0.6364 h 0.38734 c 0.32359,0 0.40759,-0.0309 0.51043,-0.18787 0.13866,-0.21161 0.55665,-0.43475 0.81441,-0.43475 0.25317,0 0.69565,0.23165 0.82785,0.43341 0.17961,0.27412 0.1686,0.84639 -0.0212,1.10203 -0.23667,0.31879 -0.4814,0.42123 -0.91875,0.3846 -0.31051,-0.0259 -0.42638,-0.0791 -0.60206,-0.27568 l -0.21755,-0.24347 h -2.77397 -2.77396 l -0.30151,0.27238 c -0.24826,0.2243 -0.35988,0.27152 -0.63205,0.26747 -0.1818,-0.002 -0.4045,-0.0348 -0.4949,-0.0714 z m 0.67536,-0.54908 c 0.17996,-0.0963 0.20387,-0.47873 0.0385,-0.61598 -0.35456,-0.29424 -0.85932,0.19853 -0.55163,0.53853 0.15982,0.1766 0.29089,0.19639 0.51313,0.0774 z m 7.49959,-0.0418 c 0.14516,-0.14515 0.15987,-0.43161 0.029,-0.56257 -0.24273,-0.24273 -0.68487,-0.0336 -0.68487,0.32398 0,0.1612 0.21532,0.36089 0.38914,0.36089 0.0794,0 0.19956,-0.0551 0.26682,-0.1223 z m -2.05958,-2.67435 c 0.12718,-0.23764 0.0957,-0.38074 -0.114,-0.51815 -0.18025,-0.1181 -0.2089,-0.1181 -0.38913,0 -0.2085,0.13661 -0.25806,0.41842 -0.10117,0.5753 0.148,0.14798 0.51301,0.11346 0.60432,-0.0571 z m 15.88865,-0.46394 c 0.1566,-0.12679 0.17125,-0.17868 0.1045,-0.36967 -0.13916,-0.39795 -0.73635,-0.3215 -0.73635,0.0943 0,0.15768 0.2495,0.42292 0.39783,0.42292 0.0285,0 0.13386,-0.0664 0.23405,-0.14752 z m -5.1614,-0.0237 c 0.12765,-0.12764 0.11754,-0.41229 -0.0186,-0.52532 -0.15089,-0.12522 -0.51452,-0.0736 -0.61526,0.0873 -0.13519,0.216 0.0553,0.53138 0.32092,0.53138 0.12078,0 0.26162,-0.0421 0.31298,-0.0934 z m -5.82143,-2.00793 c 0.18738,-0.18738 0.19731,-0.33636 0.0334,-0.50031 -0.14514,-0.14514 -0.4316,-0.15987 -0.56258,-0.029 -0.13998,0.13998 -0.11364,0.50968 0.0428,0.60081 0.20215,0.11773 0.31349,0.10139 0.48642,-0.0716 z m 2.08401,0.0345 c 0.35873,-0.25127 0.0583,-0.84363 -0.32548,-0.64176 -0.32382,0.17032 -0.36013,0.37072 -0.10949,0.60423 0.20441,0.19043 0.21531,0.19138 0.43497,0.0376 z m 6.82158,-0.62376 c 0.1575,-0.15751 0.15525,-0.33489 -0.006,-0.51364 -0.24127,-0.26662 -0.64946,-0.0933 -0.64946,0.27571 0,0.3422 0.40487,0.48905 0.65597,0.23793 z m 9.33952,-2.15581 c 0.0627,-0.17952 0.0464,-0.24472 -0.0975,-0.38863 -0.16171,-0.16171 -0.18664,-0.1652 -0.38528,-0.0541 -0.40154,0.22466 -0.27489,0.71384 0.17535,0.67727 0.17525,-0.0142 0.25053,-0.0717 0.30747,-0.23457 z m -12.839,-0.52052 c 0.29955,-0.33098 -0.0927,-0.76753 -0.49578,-0.5518 -0.1955,0.10461 -0.21137,0.36612 -0.0341,0.562 0.16683,0.18432 0.35717,0.18066 0.52989,-0.01 z m -18.00293,3.1409 0.18493,-0.21978 c 0.20805,-0.24725 0.68749,-0.42207 0.96122,-0.35049 0.15427,0.0404 0.33265,-0.10332 1.18698,-0.95581 l 0.14828,0.21097 0.8356,-0.0174 c 0.45959,-0.01 0.91441,-0.0184 1.01072,-0.0195 0.16839,-10e-4 0.17511,-0.0286 0.17511,-0.69797 0,-0.58074 -0.0233,-0.71287 -0.1401,-0.79773 -0.42184,-0.30617 -0.54004,-0.95927 -0.24216,-1.33798 0.20308,-0.25818 0.54142,-0.43707 0.8259,-0.43669 0.26297,2.4e-4 0.68168,0.2426 0.79936,0.4625 0.0762,0.14235 0.15932,0.15983 0.7605,0.15983 0.66916,0 0.67741,-0.002 0.96014,-0.27847 0.4677,-0.45672 1.07215,-0.44039 1.50754,0.0407 0.11012,0.1217 0.15253,0.28465 0.15546,0.59751 0.004,0.39957 -0.0166,0.44915 -0.28666,0.69674 -0.23662,0.21697 -0.35285,0.26656 -0.62475,0.26656 -0.33772,0 -0.6323,-0.14528 -0.82059,-0.40468 -0.0855,-0.11769 -0.21618,-0.13976 -0.81719,-0.138 -0.70723,0.002 -0.71882,0.005 -1.00506,0.27136 l -0.28959,0.26927 -0.0217,1.03222 -0.0217,1.03224 -1.22471,0.039 -1.22472,0.039 -0.85715,0.85477 c -0.84391,0.84155 0,-0.35395 0,0 0,0.9612 -1.10004,1.40157 -1.73395,0.69413 1.03175,-0.38766 0.67344,-1.55902 -0.20166,-1.01208 z m 1.23341,0.62438 c 0.22764,-0.22765 0.0557,-0.62438 -0.27063,-0.62438 -0.3043,0 -0.47998,0.35818 -0.30102,0.61367 0.14453,0.20636 0.57165,0.29342 0.57165,0.0108 z m 3.84288,-3.93356 c 0.23899,-0.10889 0.29994,-0.32031 0.1529,-0.53026 -0.13356,-0.19066 -0.43275,-0.20968 -0.60405,-0.0384 -0.16395,0.16397 -0.15403,0.31292 0.0334,0.50031 0.18239,0.18239 0.17142,0.18059 0.41779,0.0684 z m 3.32299,0.008 c 0.17063,-0.0913 0.20514,-0.45632 0.0572,-0.6043 -0.14859,-0.14859 -0.43191,-0.1086 -0.56371,0.0795 -0.15592,0.2226 -0.15287,0.26227 0.0344,0.44964 0.17656,0.17655 0.25823,0.18954 0.47208,0.0751 z m 4.50884,8.9461 c -0.27026,-0.10042 -0.54501,-0.53208 -0.54364,-0.85419 10e-4,-0.36081 0.14309,-0.6166 0.459,-0.8295 0.43324,-0.29195 0.90497,-0.2053 1.32399,0.24322 0.17324,0.18545 0.24054,0.20195 0.82306,0.20195 0.58253,0 0.64982,-0.0166 0.82308,-0.20195 0.40645,-0.43506 0.86449,-0.52999 1.29392,-0.26816 0.75664,0.46136 0.55403,1.62637 -0.30716,1.76612 -0.39528,0.0642 -0.62245,-0.01 -0.89732,-0.29057 -0.2308,-0.23606 -0.25344,-0.24182 -0.92263,-0.23459 -0.63142,0.008 -0.70073,0.0232 -0.87091,0.20682 -0.30626,0.33029 -0.73783,0.42557 -1.18139,0.26085 z m 0.63578,-0.55753 c 0.29138,-0.23478 0.15526,-0.68099 -0.20772,-0.68099 -0.38541,0 -0.51644,0.55974 -0.16435,0.702 0.22376,0.0904 0.23454,0.0898 0.37207,-0.021 z m 3.20093,0.0254 c 0.23546,-0.0895 0.30646,-0.33426 0.15836,-0.54572 -0.14812,-0.21147 -0.4528,-0.20529 -0.60519,0.0123 -0.15591,0.22259 -0.15288,0.26227 0.0345,0.44963 0.18022,0.18024 0.1662,0.17738 0.41234,0.0838 z m 8.421,-2.33296 c -0.42827,-0.18878 -0.63952,-0.67886 -0.50614,-1.1742 0.20394,-0.75741 1.22405,-0.91198 1.73467,-0.26283 l 0.14473,0.184 h 5.58075 5.58075 l 0.25425,-0.26955 c 0.44315,-0.46982 1.03683,-0.44467 1.46317,0.0621 0.17523,0.20826 0.19683,0.29329 0.16672,0.65648 -0.0507,0.61169 -0.29516,0.83518 -0.91342,0.83518 -0.41454,0 -0.4871,-0.0254 -0.72183,-0.25293 l -0.26097,-0.25294 h -5.59414 -5.59416 l -0.20311,0.24332 c -0.16797,0.20118 -0.27,0.24822 -0.58937,0.27168 -0.21244,0.0156 -0.45629,-0.002 -0.5419,-0.0403 z m 0.66465,-0.61728 c 0.35288,-0.28577 -0.0752,-0.8234 -0.46267,-0.58098 -0.18243,0.11413 -0.20604,0.49961 -0.0381,0.62238 0.18629,0.13622 0.29225,0.12746 0.50079,-0.0414 z m 13.07487,0 c 0.3529,-0.28577 -0.0752,-0.8234 -0.46266,-0.58098 -0.17197,0.10763 -0.19737,0.4446 -0.045,0.59697 0.16376,0.16375 0.29061,0.15976 0.50766,-0.016 z m -38.37381,-4.97067 c -0.1058,-0.0728 -0.23818,-0.19534 -0.29413,-0.2724 -1.60659,-0.22993 -2.21375,-0.92048 -0.17189,-0.91851 l 0.20577,-0.23095 c 0.39443,-0.44266 0.97879,-0.48682 1.42901,-0.10798 0.43966,0.36993 0.38329,1.21463 -0.10074,1.50975 -0.30693,0.18715 -0.8111,0.19656 -1.06802,0.0199 z m 0.78041,-0.56816 c 0.18739,-0.18739 0.19732,-0.33635 0.0334,-0.50032 -0.17553,-0.17553 -0.47133,-0.15105 -0.61264,0.0507 -0.0666,0.0951 -0.12114,0.2002 -0.12114,0.23348 0,0.10548 0.30655,0.37181 0.42803,0.37181 0.0643,0 0.18679,-0.0701 0.2724,-0.15565 z m 9.10572,-2.14023 -2.06131,-2.0624 h -4.66229 c -7.71375,-0.0201 -7.61589,-0.77827 0.0154,-0.77827 3.06616,0 4.74993,0.0281 4.89364,0.0815 0.12051,0.0448 1.06841,0.92891 2.10646,1.9646 l 1.88735,1.88306 2.40571,-2.40476 c 2.32166,-2.32075 2.40427,-2.41361 2.36464,-2.65784 -0.0505,-0.31115 0.21979,-0.83389 0.49632,-0.95988 0.10365,-0.0473 0.33963,-0.0859 0.52446,-0.0859 0.58818,0 0.96379,0.46929 0.87936,1.09869 -0.0719,0.53538 -0.54171,0.87156 -1.10842,0.79298 -0.21355,-0.0296 -0.42878,0.16601 -2.83782,2.57926 -1.43372,1.43622 -2.65973,2.6113 -2.72449,2.6113 -0.0648,0 -1.04531,-0.92808 -2.17902,-2.06241 z m 8.18513,-3.82557 c 0.17661,-0.15983 0.18093,-0.32215 0.0136,-0.50714 -0.15808,-0.17467 -0.36467,-0.18252 -0.52717,-0.02 -0.3658,0.36579 0.12985,0.87449 0.51364,0.52716 z m -28.54516,-2.04721 0.15988,-0.18887 c 0.2112,-0.24949 0.44297,-0.35925 0.75791,-0.35888 0.28149,2.4e-4 0.74272,0.243 0.81378,0.4282 0.0317,0.0825 0.1607,0.11591 0.4449,0.115 0.38637,-10e-4 0.4184,-0.0188 0.92323,-0.50656 0.28762,-0.27792 0.5536,-0.56627 0.59107,-0.64079 0.11266,-0.22416 0.0169,-0.79025 -0.14874,-0.87889 -0.41199,-0.22048 -0.49546,-1.06604 -0.14234,-1.44191 0.40986,-0.43628 1.14842,-0.41049 1.49038,0.0521 l 0.16746,0.22652 h 1.80073 1.80073 l 0.18867,-0.20196 c 0.28347,-0.30344 0.60294,-0.44327 0.90191,-0.39475 0.66422,0.10779 1.01298,0.69882 0.77699,1.31674 -0.14987,0.39243 -0.4516,0.60302 -0.86403,0.60302 -0.33761,0 -0.70615,-0.175 -0.82119,-0.38994 -0.0791,-0.1479 -0.16573,-0.15485 -1.93218,-0.15485 h -1.84932 l -0.28819,0.29513 c -0.27506,0.2817 -0.28818,0.31918 -0.28818,0.82329 0,0.59215 0.0609,0.50471 -1.10707,1.58737 l -0.52337,0.48511 h -0.48052 c -0.44572,0 -0.49943,0.0195 -0.74172,0.26894 -0.44617,0.45942 -1.10588,0.44307 -1.53453,-0.038 l -0.20577,-0.23095 c 2.28598,-0.77956 1.20743,-0.66856 0.10951,-0.77501 z m 1.21193,0.62458 c 0.12718,-0.23764 0.0957,-0.38074 -0.11401,-0.51814 -0.18023,-0.1181 -0.2089,-0.1181 -0.38913,0 -0.20848,0.1366 -0.25805,0.41843 -0.10117,0.57529 0.14798,0.14798 0.513,0.11348 0.60431,-0.0571 z m 3.12092,-3.12092 c 0.17061,-0.0913 0.20513,-0.45632 0.0571,-0.6043 -0.13179,-0.1318 -0.37535,-0.1159 -0.54255,0.0354 -0.17391,0.1574 -0.17813,0.25239 -0.0211,0.47649 0.13283,0.18965 0.27605,0.21578 0.50657,0.0925 z m 5.52569,0 c 0.17062,-0.0913 0.20513,-0.45632 0.0571,-0.6043 -0.13742,-0.13742 -0.45779,-0.11364 -0.57654,0.0428 -0.13957,0.18385 -0.1336,0.3295 0.0204,0.49974 0.14615,0.16148 0.28133,0.17822 0.49895,0.0618 z"
         style="fill:#4d4d4d;stroke:none;stroke-width:0.07782669" />
      <path
         style="fill:#b3b3b3;fill-opacity:1;stroke:#000000;stroke-width:1.0278393;stroke-linecap:round;stroke-linejoin:round;stroke-miterlimit:4;stroke-dashoffset:0;stroke-opacity:1"
         d="m 219.03863,517.69755 c -2.10844,5.74867 -0.0498,9.87469 4.59813,9.21572 4.6479,-0.65898 3.75426,-7.1285 5.8627,-12.87718 2.10845,-5.74867 6.42056,-8.59958 1.77264,-7.94061 -4.64792,0.65899 -10.12502,5.85339 -12.23347,11.60207 z"
         id="path4388"
         inkscape:connector-curvature="0"
         sodipodi:nodetypes="sssss" />
      <path
         sodipodi:nodetypes="sssss"
         inkscape:connector-curvature="0"
         id="path4385"
         d="m 268.69841,519.0083 c 2.15523,5.73131 0.13029,9.87397 -4.52284,9.25291 -4.65314,-0.62107 -3.81225,-7.09767 -5.96749,-12.82897 -2.15523,-5.73129 -6.49043,-8.54695 -1.8373,-7.9259 4.65314,0.62107 10.17239,5.77067 12.32763,11.50196 z"
         style="fill:#cccccc;fill-opacity:1;stroke:#000000;stroke-width:1.0278393;stroke-linecap:round;stroke-linejoin:round;stroke-miterlimit:4;stroke-dashoffset:0;stroke-opacity:1" />
      <path
         sodipodi:nodetypes="sssss"
         inkscape:connector-curvature="0"
         id="path3568"
         d="m 257.87687,521.35704 c 0,11.49568 -6.35393,16.46673 -14.19191,16.46673 -7.83797,0 -14.19189,-4.97105 -14.19189,-16.46673 0,-11.4957 6.35392,-25.16283 14.19189,-25.16283 7.83798,0 14.19191,13.66713 14.19191,25.16283 z"
         style="fill:#ececec;stroke:#000000;stroke-width:0.86960864;stroke-linecap:round;stroke-linejoin:round;stroke-miterlimit:4;stroke-dasharray:none;stroke-dashoffset:0;stroke-opacity:1" />
      <path
         inkscape:connector-curvature="0"
         id="path3575"
         d="m 237.16116,529.92265 c 1.70783,1.72066 3.82105,2.51371 6.13708,2.51371 1.69615,0 3.28347,-0.42608 4.6802,-1.32856 l 0.36988,0.63409 c -1.51617,0.97114 -3.23728,1.44933 -5.05008,1.44933 -0.26848,0 -0.53581,-0.01 -0.80015,-0.0302 -0.18199,1.71597 -0.0668,3.19003 0.87564,4.18953 l -0.63409,0.59634 c -1.20879,-1.28193 -1.30005,-3.06137 -1.10211,-4.89155 -1.84093,-0.31122 -3.54427,-1.15649 -4.96703,-2.56654 0.16323,-0.1903 0.32801,-0.37755 0.49066,-0.56617 z"
         style="color:#000000;font-style:normal;font-variant:normal;font-weight:normal;font-stretch:normal;font-size:medium;line-height:normal;font-family:Sans;-inkscape-font-specification:Sans;text-indent:0;text-align:start;text-decoration:none;text-decoration-line:none;letter-spacing:normal;word-spacing:normal;text-transform:none;writing-mode:lr-tb;direction:ltr;baseline-shift:baseline;text-anchor:start;display:inline;overflow:visible;visibility:visible;fill:#000000;fill-opacity:1;stroke:none;stroke-width:0.75109679;marker:none;enable-background:accumulate" />
      <g
         style="fill:#e3dbdb;stroke-width:6.34439278;stroke-miterlimit:4;stroke-dasharray:none"
         transform="matrix(0.04496917,0.59402753,-0.59402753,0.04496917,692.84871,-198.88573)"
         id="g1596">
        <path
           sodipodi:nodetypes="ccccccssccccccssccccccccccccccccccccccccccccccccccccccccccccc"
           style="fill:#ffffff;stroke:#000000;stroke-width:1.53253853;stroke-miterlimit:4;stroke-dasharray:none"
           inkscape:connector-curvature="0"
           d="m 1146.0893,831.34932 -3.9709,-0.73844 c -0.097,-0.0181 -0.2025,-0.10894 -0.2351,-0.20219 l -1.2171,-2.83976 c -0.045,-0.0877 -0.037,-0.22537 0.019,-0.30702 l 2.3137,-3.37214 c 0.056,-0.0812 0.044,-0.20459 -0.026,-0.27441 l -2.8897,-2.88975 c -0.07,-0.0698 -0.1931,-0.0811 -0.2743,-0.0254 l -3.4312,2.35471 c -0.081,0.0558 -0.2203,0.0658 -0.3085,0.0223 l -2.7528,-1.12686 c -0.094,-0.0309 -0.1846,-0.13552 -0.203,-0.23238 l -0.7645,-4.10722 c -0.018,-0.0969 -0.1132,-0.17609 -0.2119,-0.17609 h -4.0871 c -0.098,0 -0.1937,0.0792 -0.2115,0.17609 l -0.7643,4.10722 c -0.018,0.0969 -0.1092,0.20145 -0.2029,0.23238 l -2.7531,1.12686 c -0.088,0.0435 -0.2275,0.0336 -0.3084,-0.0223 l -3.4311,-2.35471 c -0.082,-0.0557 -0.2049,-0.0444 -0.2745,0.0254 l -2.89,2.88975 c -0.069,0.0698 -0.081,0.19324 -0.026,0.27441 l 2.3139,3.37214 c 0.056,0.0817 0.065,0.21934 0.019,0.30702 l -1.2175,2.83976 c -0.032,0.0932 -0.1379,0.18408 -0.235,0.20219 l -3.9708,0.73844 c -0.097,0.0184 -0.1761,0.11353 -0.1761,0.21209 l 2e-4,4.08691 c 0,0.0986 0.08,0.19446 0.1762,0.21209 l 3.8733,0.72082 c 0.097,0.0177 0.2005,0.10967 0.23,0.20363 l 1.2093,3.02068 c 0.043,0.0887 0.033,0.2273 -0.023,0.30847 l -2.2002,3.2062 c -0.056,0.0811 -0.044,0.20483 0.026,0.27465 l 2.8903,2.88975 c 0.069,0.0693 0.193,0.0807 0.2744,0.0254 l 3.1495,-2.1617 c 0.081,-0.0555 0.2171,-0.0599 0.3019,-0.0108 l 1.3891,0.74157 c 0.088,0.0449 0.1905,0.008 0.2281,-0.0841 3.8107,1.6988 6.1713,1.18463 9.2928,2.3e-4 0.038,0.0911 0.1402,0.12875 0.2282,0.0841 l 1.389,-0.74158 c 0.085,-0.0495 0.2208,-0.0454 0.3019,0.0108 l 3.1498,2.1617 c 0.081,0.0553 0.2048,0.0439 0.2741,-0.0254 l 2.8903,-2.88976 c 0.07,-0.0697 0.081,-0.19348 0.026,-0.27466 l -2.2005,-3.20618 c -0.056,-0.0811 -0.066,-0.21982 -0.023,-0.30848 l 1.2093,-3.02067 c 0.029,-0.094 0.1326,-0.18601 0.2297,-0.20365 l 3.8734,-0.7208 c 0.097,-0.0177 0.1761,-0.11353 0.1761,-0.21208 l 5e-4,-4.08693 c 2e-4,-0.0988 -0.079,-0.19396 -0.1756,-0.21233"
           id="path1535" />
      </g>
      <ellipse
         ry="8.0363836"
         rx="8.1215353"
         cy="509.94617"
         cx="234.34196"
         id="path3571"
         style="fill:#ffffff;stroke:#000000;stroke-width:0.94722253;stroke-linecap:round;stroke-linejoin:round;stroke-miterlimit:4;stroke-dasharray:none;stroke-dashoffset:0;stroke-opacity:1" />
      <path
         inkscape:connector-curvature="0"
         id="path4370"
         d="m 238.56078,509.70377 c 0,1.08344 -0.87829,1.96173 -1.96174,1.96173 -1.08343,0 -1.96173,-0.87829 -1.96173,-1.96173 0,-1.08344 0.8783,-1.96173 1.96173,-1.96173 1.08345,0 1.96174,0.87829 1.96174,1.96173 z"
         style="fill:#000000;fill-opacity:1;stroke:#000000;stroke-width:0.86960864;stroke-linecap:round;stroke-linejoin:round;stroke-miterlimit:4;stroke-dashoffset:0;stroke-opacity:1" />
      <path
         inkscape:connector-curvature="0"
         style="fill:#000000;fill-opacity:1;stroke:#000000;stroke-width:0.86960864;stroke-linecap:round;stroke-linejoin:round;stroke-miterlimit:4;stroke-dashoffset:0;stroke-opacity:1"
         d="m 250.02955,509.95251 c 0,1.08343 -0.87829,1.96174 -1.96174,1.96174 -1.08343,0 -1.96173,-0.87831 -1.96173,-1.96174 0,-1.08344 0.8783,-1.96174 1.96173,-1.96174 1.08345,0 1.96174,0.8783 1.96174,1.96174 z"
         id="path4373" />
      <path
         sodipodi:nodetypes="czcsssc"
         inkscape:connector-curvature="0"
         id="path4402"
         d="m 244.01651,499.09568 c 0,0 3.16692,-3.48818 6.6043,-3.91585 3.4374,-0.42766 6.98022,2.2922 6.98022,2.2922 -0.39387,0.69512 -0.16398,1.19429 -0.69155,0.96534 -1.95744,-0.84947 -3.96647,-1.33507 -6.0718,-1.14169 -1.82004,0.16717 -2.90146,3.31001 -5.20622,2.54871 -1.1271,-0.3723 -0.53353,-0.38293 -1.61495,-0.74871 z"
         style="fill:#000000;stroke:none;stroke-width:0.24155796" />
      <path
         style="fill:#000000;stroke:none;stroke-width:0.24155796"
         d="m 240.27117,499.489 c 0,0 -3.62043,-3.01484 -7.08391,-2.96124 -3.46348,0.0536 -6.59448,3.23888 -6.59448,3.23888 0.48654,0.63372 0.32816,1.15997 0.81884,0.86001 1.82058,-1.11294 3.74276,-1.8727 5.85456,-1.97343 1.82563,-0.0871 3.33281,2.87524 5.5096,1.80141 1.0645,-0.52514 0.47521,-0.45328 1.49539,-0.96563 z"
         id="path4404"
         inkscape:connector-curvature="0"
         sodipodi:nodetypes="czcsssc" />
      <path
         inkscape:transform-center-x="0.79388676"
         sodipodi:nodetypes="cccc"
         inkscape:connector-curvature="0"
         id="path4406"
         d="m 253.41597,534.15215 c 1.3341,-3.16737 0.0813,-5.92411 -2.30952,-8.43423 1.96894,0.4343 5.02561,1.02581 4.52392,3.58773 -0.35136,1.86281 -1.2204,3.60568 -2.2144,4.8465 z"
         style="fill:#ff0000;stroke:#000000;stroke-width:0.55392039;stroke-linecap:butt;stroke-linejoin:miter;stroke-miterlimit:4;stroke-dasharray:none;stroke-opacity:1"
         inkscape:transform-center-y="-1.2962167e-06" />
      <path
         sodipodi:nodetypes="ccc"
         style="fill:#000000;stroke:none;stroke-width:0.19626708"
         d="m 252.64348,524.69273 c -1.9951,-0.32691 -2.54346,1.80753 -1.96339,3.11907 -1.96519,-2.03052 -0.56781,-4.37087 1.96339,-3.11907 z"
         id="path3097"
         inkscape:connector-curvature="0" />
    </g>
    <g
       id="g1037"
       inkscape:export-xdpi="150"
       inkscape:export-ydpi="150"
       transform="matrix(0.24155796,0,0,0.24155796,92.203663,489.1249)" />
  </g>
</svg>
